# xmcd
#
# Track frame offsets:
#	150
#	15267
#	39343
#	63181
#	74485
#	102181
#	134803
#	169442
#	187768
#	220085
#
# Disc length: 3045 seconds
#
# Revision: 1
# Processed by: cddbd v1.5.2PL0 Copyright (c) Steve Scherf et al.
# Submitted via: audiograbber 1.83.01
#
DISCID=870be30a
DTITLE=Only Blues Band - Only For You!
DYEAR=1999
DGENRE=Blues
TTITLE0=Shake, Rattle and Roll
TTITLE1=Sans Les Femmes (Le Blues n'existerait pas)
TTITLE2=If You Be My Baby
TTITLE3=If The Washing Don't Get You The Rinsing Will
TTITLE4=Who's Been Talkin'
TTITLE5=Little Dab-A-Doo
TTITLE6=Damn Right I've Got The Blues
TTITLE7=Blues Hang On
TTITLE8=Where Is My Girl
TTITLE9=Blues du Petit Matin (Wee Wee Hours Blues)
EXTD=Only Blues Band: Raymond Cantin (bass, voix), Pierre Brassard (sax ténor),
EXTD=Magdi Abdel-Malak (drum), Michel Lavoie (guit, voix), Woogie (piano, voix
EXTD=]\nfreedb submitted by BigueNique@yahoo.ca\nhttp://radio.fiatlux.tk
EXTT0=
EXTT1=
EXTT2=
EXTT3=
EXTT4=
EXTT5=
EXTT6=
EXTT7=
EXTT8=
EXTT9=
PLAYORDER=
